<?xml version="1.0" encoding="utf-8"?>
<!-- Generator: Adobe Illustrator 19.0.0, SVG Export Plug-In . SVG Version: 6.00 Build 0)  -->
<svg version="1.1" id="Layer_1" xmlns="http://www.w3.org/2000/svg" xmlns:xlink="http://www.w3.org/1999/xlink" x="0px" y="0px"
	 viewBox="0 0 305 218.3" style="enable-background:new 0 0 305 218.3;" xml:space="preserve">
<style type="text/css">
	.st0{fill:#FFFFFF;}
</style>
<g>
	<polygon points="27.2,95.2 32.1,94.9 32.1,94.5 32.1,79.3 32.1,69 29.8,80.6 23.7,83.8 33.9,42.8 34.3,52.3 35.6,35.9 35.6,35.9 
		36.1,36.8 36.1,69.4 36.1,94.6 45.3,94 45.3,86.4 45.5,86.5 45.5,79.3 47.5,87.4 52.7,89.8 48.2,73.7 55.2,88.7 36.2,20.9 
		16.3,91.2 27.2,86.2 	"/>
	<path d="M76.2,92.2l5.1-0.3V73.5l0.1,0.2l-0.1-7.1l0-2.6v-1.2l0,0l0-3.9l-0.1-6.5l-1.5,7.2l-0.9,4.3l-2.5,1.1l-2.8,1.2l2.8-12.2
		l1.4-6l6.1-26.2l0.1,1.8l0.2,7.9v0l0,0l1.1-13.7l0.2-2.5l0.1-0.2l0,1.6v0.8l0,30.4l0,4.9l0,8.8l0,3.1l0,0l0.1,0l0.1,26.8l8.8-0.6
		c0-4.1-0.1-14.4-0.2-22.4c-0.1-5.8-0.1-10.5-0.1-10.5l0.4,2.2l1.8,9.2l5.7,2.5l-2.3-10.6l5.6,12L85.5,0l-20,73.7l10.7-4.8V92.2z"/>
	<polygon points="123,89.3 127.9,89 127.9,88.7 127.9,80.1 127.9,73.5 127.9,64.7 127.9,63.1 125.5,74.8 119.5,77.9 129.7,37 
		130.1,46.5 131.4,30.1 131.8,31 131.8,63.6 131.9,88.7 141.1,88.2 141.1,86.6 140.6,73.7 142.8,81.3 151.6,85.3 143.2,55.2 
		144.5,70.8 134.4,24 132,15.1 112.1,85.3 123,80.4 	"/>
	<g>
		<polygon class="st0" points="202.4,106.8 212.4,106.1 213.4,106 213.5,101.7 220.1,101.4 225.1,101.1 225.4,91 220.1,91.3 
			212.4,91.8 191.3,93 191,103 202.5,102.4 		"/>
		<polygon class="st0" points="252.5,103.2 262.9,102.5 263.3,88.9 252.9,89.5 		"/>
		<polygon class="st0" points="230.5,90.7 230.1,104.8 241.1,104 241.1,102 241.5,90.1 241.1,90.1 		"/>
		<path class="st0" d="M282.4,97.8l6.2-0.3c2.5-0.1,4.2,0.6,4.9,2.8l11.3-0.8c-1-8.4-6.2-12.6-15.7-12.1l-17.4,1l-0.4,13.5l11-0.8
			L282.4,97.8z"/>
		<path class="st0" d="M5.3,174.1c8.3-0.5,15.9-4.5,16.4-18.6l0-1.2l-11,0.6l-0.1,2c-0.2,5.4-3,6.9-6.5,7.1
			c-1.2,0.1-2.6,0.2-3.8,0.1L0,174.3C1.8,174.4,3.3,174.3,5.3,174.1z"/>
		<polygon class="st0" points="23.3,102.6 12.2,103.2 10.8,152.5 21.8,152.1 		"/>
		<polygon class="st0" points="53.5,100.9 52,151 60.3,150.7 62.4,150.6 63.9,100.3 60.3,100.5 		"/>
		<path class="st0" d="M51.9,152.7l-0.1,2.5c-0.2,5-2.4,7-5.9,7.2c-3.5,0.2-5.6-1.5-5.5-6.5l0.1-2.6l-11,0.6l-0.1,1.9
			c-0.3,11.3,5.1,17.4,15.9,16.8c7.3-0.4,12.4-3.7,15-9.3c1.2-2.6,1.9-5.8,2-9.4l0.1-1.8l-2.1,0.1L51.9,152.7z"/>
		<polygon class="st0" points="42.1,101.5 31.1,102.2 29.6,151.8 40.6,151.4 		"/>
		<polygon class="st0" points="89.1,145.2 88.3,149.7 89.1,149.6 98,149.3 107.4,97.8 97.3,98.4 		"/>
		<polygon class="st0" points="89.1,169.2 94.5,168.9 97.9,150.1 89.1,150.6 88.1,150.6 87.1,156.3 86.5,150.8 75.7,151.4 78,169.8 
					"/>
		<polygon class="st0" points="74.4,99.7 69.3,99.9 74.2,138.8 75.6,150.1 86.4,149.7 80.4,99.3 		"/>
		<polygon class="st0" points="123.1,136.5 138.1,135.7 138.2,135.7 138.5,125.6 138.1,125.6 123.4,126.5 124,106.9 138.1,106.1 
			143,105.8 143.3,95.7 138.1,96 113.3,97.4 111.8,148.8 122.7,148.4 		"/>
		<polygon class="st0" points="141.2,166.2 141.5,156.1 138.1,156.3 122.5,157.2 122.7,148.7 111.7,149.3 111.2,167.9 138.1,166.4 
					"/>
		<polygon class="st0" points="174.7,136 166.9,103.7 164.7,94.5 152.8,95.2 152.6,95.2 150.9,95.3 150.5,106.2 150.3,112.4 
			148.7,165.7 158.6,165.2 160.2,114.1 166.9,141.8 172.4,164.4 183.7,163.8 185.8,93.3 176,93.9 		"/>
		<polygon class="st0" points="212.4,141.1 213.4,106.6 212.4,106.6 202.4,107.1 200.7,162.8 211.7,162.1 		"/>
		<path class="st0" d="M262.9,104l-10.4,0.5l-1.2,39.2c-0.2,5-2.4,7-5.9,7.2c-1.9,0.1-3.3-0.3-4.3-1.4c-0.9-1-1.3-2.7-1.3-5.1
			l1.2-39.3l-11,0.6l-1.2,38.6c-0.3,9.9,3.9,15.9,12.3,16.7c1.1,0.1,2.3,0.1,3.6,0.1c10.8-0.6,16.6-7.4,16.9-18.7L262.9,104z"/>
		<path class="st0" d="M305,101.9l-11,0.6c0,0.5,0,1,0,1.5l-1.1,36.6c-0.1,5-2.3,7-5.8,7.2l-6.2,0.4l1.4-45.1l-11,0.6l-1.7,55.2
			l17.4-1c11-0.6,16.6-7.1,16.9-18.4l1.1-35.6C305,103.2,305,102.5,305,101.9z"/>
		<g>
			<polygon class="st0" points="271.9,187.3 275.4,187.1 275.5,182.9 271,183.2 			"/>
			<polygon class="st0" points="264.7,187.7 267.7,187.6 267.9,183.3 264.9,183.5 			"/>
			<polygon class="st0" points="281.7,186.8 285.1,186.6 285.2,182.4 281.8,182.6 			"/>
			<polygon class="st0" points="294.9,182 291.5,182.1 291.4,186.2 300.6,185.7 300.7,182.6 294.9,182.9 			"/>
			<polygon class="st0" points="143.3,194.7 146.7,194.5 147.4,173 144,173.2 			"/>
			<polygon class="st0" points="158.4,185.2 155.3,172.5 151.1,172.8 150.5,194.3 153.5,194.1 154,178.5 157.7,193.9 161.1,193.7 
				161.8,172.2 158.8,172.3 			"/>
			<path class="st0" d="M175.2,173.6c-0.8-1.4-2.2-2.1-4.3-1.9l-5.3,0.3l-0.7,21.5l5.3-0.3c3.4-0.2,5.1-2.2,5.2-5.6v-0.1v-0.1
				l0.3-10.7c0-0.1,0-0.3,0-0.4C175.7,175.2,175.5,174.3,175.2,173.6z M172,187.9c0,1.5-0.7,2.1-1.7,2.2l-1.9,0.1l0.5-15.4l1.9-0.1
				c1.1-0.1,1.7,0.5,1.7,2L172,187.9z"/>
			<polygon class="st0" points="182.4,192.4 185,192.3 185.8,192.3 187.9,192.1 188,189.1 184,189.3 183.4,189.3 182.2,189.4 
				182.2,187.4 182.2,186.8 182.3,185 182.4,183.1 187,182.8 187.1,179.8 182.5,180 182.6,176.3 182.6,174 188.5,173.7 188.6,170.6 
				179.4,171.1 179.2,176.3 179.2,177.4 179.1,179.5 179,183.8 178.9,187.4 178.9,188.5 178.7,192.6 180.8,192.6 			"/>
			<path class="st0" d="M196.9,170.1l-5,0.3l-0.5,16.3l-0.2,5.2l3.3-0.2l0-0.4l0.2-7.7l1.6-0.1c3.4-0.2,5-2.1,5.2-5.6l0.1-2.8
				C201.9,171.7,200.3,169.9,196.9,170.1z M198.4,175.1l-0.1,3.2c-0.1,1.6-0.7,2.1-1.7,2.2l-1.6,0.1l0.2-7.3l1.6-0.1
				C197.9,173.2,198.5,173.6,198.4,175.1z"/>
			<polygon class="st0" points="213.9,172.3 214,169.2 204.8,169.7 204.2,191.2 213.4,190.7 213.4,187.6 207.6,187.9 207.8,181.7 
				212.5,181.4 212.5,178.3 207.9,178.6 208.1,172.6 			"/>
			<polygon class="st0" points="224.7,181.4 221.6,168.7 217.4,169 216.7,190.5 218.9,190.4 219.5,190.3 219.8,190.3 220,183.6 
				220.1,179.9 220.3,174.7 221.4,179.6 221.7,180.7 222,182 222.5,184.2 224,190.1 227.4,189.9 228.1,168.4 225.1,168.5 			"/>
			<path class="st0" d="M237.1,167.8l-5.3,0.3l-0.6,18.5l-0.1,3l0.1,0l5.3-0.3c3.3-0.2,5.1-2.1,5.2-5.6l0.3-10.9
				C242.1,169.4,240.5,167.7,237.1,167.8z M238.3,184.1c-0.1,1.6-0.7,2.2-1.8,2.2l-1.9,0.1l0.5-15.4l1.9-0.1c1.1-0.1,1.7,0.5,1.7,2
				L238.3,184.1z"/>
			<polygon class="st0" points="248.4,188.7 249,167.2 245.6,167.4 245,188.9 			"/>
			<polygon class="st0" points="261.9,169.5 262,166.4 255.2,166.8 252.8,166.9 252.2,187 252.2,188.4 254.8,188.3 255.5,188.3 
				257.9,188.1 259.4,188 261.3,187.9 261.4,184.9 260.4,184.9 259,185 256.8,185.1 256.2,185.2 255.6,185.2 255.7,182.5 
				255.8,178.9 260.4,178.6 260.5,176.3 260.5,175.6 255.9,175.8 256.1,169.8 			"/>
			<polygon class="st0" points="272.7,178.7 270.4,169.2 269.6,166 265.4,166.2 265.1,176.3 264.9,182.5 264.9,183.4 267.9,183.2 
				267.9,182.5 268.1,176.3 268.2,172 269.3,176.3 270.1,179.5 270.4,180.8 270.9,183 275.5,182.6 276.1,165.6 273.1,165.8 			"/>
			<polygon class="st0" points="278.7,168.5 282.2,168.3 281.9,182.2 285.2,182 285.6,168.1 289.1,167.9 289.2,164.9 278.8,165.4 
							"/>
			<polygon class="st0" points="291.5,181.5 294.9,181.3 295,176.6 299.7,176.4 299.7,173.3 295.1,173.6 295.3,167.6 301.1,167.2 
				301.2,164.2 292,164.7 			"/>
		</g>
	</g>
	<g>
		<path d="M96.2,210.5L96.2,210.5C96.2,210.5,96.2,210.5,96.2,210.5z"/>
		<path d="M136.1,174.5l-10,0.6c-6,8.9-17,15.3-30,17.2c-0.1,0-0.1,0-0.2,0.1c0.1-0.1,0.1-0.1,0.2-0.1c7.2-2.4,12.9-5.6,17.2-9
			c-3.6,1.8-7.7,3-12,3.7c8.7-2.8,14.5-7.1,18.3-11.5l-5,0.3c-4.8,4.5-11.3,7.9-18.5,9.6v-8.5l-9.1,0.4l-0.1,9.1l0,6.6l-1.7-7.8
			l-2.3,28l-0.2-5.2l-0.3-21.5l-0.1-8.8l-3.8,0.3v8.2c-5.6-0.8-10.7-2.5-15.2-5c2.5,2,5.4,3.8,7.5,4.9c-5.9-1.9-10.3-4.1-12.7-6.9
			l-10.9,0.7c4.4,5.2,10.5,9.4,17.6,11.9c-4.5-1-8.7-2.6-12.5-4.7c5.1,4.7,11.4,8.5,18.5,11c-12.5-2.7-23.1-9.2-30-17.8l-4.2,0.3
			c8.5,12.3,23,21.1,40,23.3l1.8-13.6l-1,28l16-5l1.1-15.8l0,0l1.6,16.3l0.1-3.3c0,0-0.1,0,0,0v-7c14.1-2.4,26.4-9.4,34.6-19
			c-4.5,4-9,6.9-13.6,8.8C124.6,189.4,131.1,183.4,136.1,174.5z"/>
	</g>
</g>
</svg>
